<svg xmlns="http://www.w3.org/2000/svg" viewBox="0 0 130 92" width="130mm" height="92mm" font-family="'Hiragino Kaku Gothic ProN','Yu Gothic','Noto Sans JP','Noto Sans CJK JP',Meiryo,sans-serif" role="img" aria-labelledby="t d">
<title id="t">温度計の目盛り板 (印刷用)</title>
<desc id="d">半円の目盛り。左端 10℃、右端 40℃、1℃ ごとに目盛り。中心にモーターの軸を通す。100% の大きさで印刷する。</desc>
<rect width="130" height="92" fill="#fff"/>
<rect x="1" y="1" width="128" height="90" fill="none" stroke="#9CA3AF" stroke-width=".3" stroke-dasharray="2 1.5"/>
<path d="M16.00 68.00 A49 49 0 0 1 32.21 31.59" fill="none" stroke="#BFDBFE" stroke-width="4"/>
<path d="M32.21 31.59 A49 49 0 0 1 70.12 19.27" fill="none" stroke="#BBF7D0" stroke-width="4"/>
<path d="M70.12 19.27 A49 49 0 0 1 114.00 68.00" fill="none" stroke="#FECACA" stroke-width="4"/>
<line x1="13.00" y1="68.00" x2="21.00" y2="68.00" stroke="#111" stroke-width="0.6"/>
<text x="8.00" y="68.00" font-size="4.2" text-anchor="middle" dominant-baseline="central" font-weight="700">10</text>
<line x1="13.28" y1="62.56" x2="18.26" y2="63.09" stroke="#111" stroke-width="0.3"/>
<line x1="14.14" y1="57.19" x2="19.03" y2="58.23" stroke="#111" stroke-width="0.3"/>
<line x1="15.55" y1="51.93" x2="20.30" y2="53.48" stroke="#111" stroke-width="0.3"/>
<line x1="17.50" y1="46.85" x2="22.06" y2="48.88" stroke="#111" stroke-width="0.3"/>
<line x1="19.97" y1="42.00" x2="26.89" y2="46.00" stroke="#111" stroke-width="0.6"/>
<text x="15.64" y="39.50" font-size="4.2" text-anchor="middle" dominant-baseline="central" font-weight="700">15</text>
<line x1="22.93" y1="37.44" x2="26.98" y2="40.37" stroke="#111" stroke-width="0.3"/>
<line x1="26.36" y1="33.21" x2="30.07" y2="36.55" stroke="#111" stroke-width="0.3"/>
<line x1="30.21" y1="29.36" x2="33.55" y2="33.07" stroke="#111" stroke-width="0.3"/>
<line x1="34.44" y1="25.93" x2="37.37" y2="29.98" stroke="#111" stroke-width="0.3"/>
<line x1="39.00" y1="22.97" x2="43.00" y2="29.89" stroke="#111" stroke-width="0.6"/>
<text x="36.50" y="18.64" font-size="4.2" text-anchor="middle" dominant-baseline="central" font-weight="700">20</text>
<line x1="43.85" y1="20.50" x2="45.88" y2="25.06" stroke="#111" stroke-width="0.3"/>
<line x1="48.93" y1="18.55" x2="50.48" y2="23.30" stroke="#111" stroke-width="0.3"/>
<line x1="54.19" y1="17.14" x2="55.23" y2="22.03" stroke="#111" stroke-width="0.3"/>
<line x1="59.56" y1="16.28" x2="60.09" y2="21.26" stroke="#111" stroke-width="0.3"/>
<line x1="65.00" y1="16.00" x2="65.00" y2="24.00" stroke="#111" stroke-width="0.6"/>
<text x="65.00" y="11.00" font-size="4.2" text-anchor="middle" dominant-baseline="central" font-weight="700">25</text>
<line x1="70.44" y1="16.28" x2="69.91" y2="21.26" stroke="#111" stroke-width="0.3"/>
<line x1="75.81" y1="17.14" x2="74.77" y2="22.03" stroke="#111" stroke-width="0.3"/>
<line x1="81.07" y1="18.55" x2="79.52" y2="23.30" stroke="#111" stroke-width="0.3"/>
<line x1="86.15" y1="20.50" x2="84.12" y2="25.06" stroke="#111" stroke-width="0.3"/>
<line x1="91.00" y1="22.97" x2="87.00" y2="29.89" stroke="#111" stroke-width="0.6"/>
<text x="93.50" y="18.64" font-size="4.2" text-anchor="middle" dominant-baseline="central" font-weight="700">30</text>
<line x1="95.56" y1="25.93" x2="92.63" y2="29.98" stroke="#111" stroke-width="0.3"/>
<line x1="99.79" y1="29.36" x2="96.45" y2="33.07" stroke="#111" stroke-width="0.3"/>
<line x1="103.64" y1="33.21" x2="99.93" y2="36.55" stroke="#111" stroke-width="0.3"/>
<line x1="107.07" y1="37.44" x2="103.02" y2="40.37" stroke="#111" stroke-width="0.3"/>
<line x1="110.03" y1="42.00" x2="103.11" y2="46.00" stroke="#111" stroke-width="0.6"/>
<text x="114.36" y="39.50" font-size="4.2" text-anchor="middle" dominant-baseline="central" font-weight="700">35</text>
<line x1="112.50" y1="46.85" x2="107.94" y2="48.88" stroke="#111" stroke-width="0.3"/>
<line x1="114.45" y1="51.93" x2="109.70" y2="53.48" stroke="#111" stroke-width="0.3"/>
<line x1="115.86" y1="57.19" x2="110.97" y2="58.23" stroke="#111" stroke-width="0.3"/>
<line x1="116.72" y1="62.56" x2="111.74" y2="63.09" stroke="#111" stroke-width="0.3"/>
<line x1="117.00" y1="68.00" x2="109.00" y2="68.00" stroke="#111" stroke-width="0.6"/>
<text x="122.00" y="68.00" font-size="4.2" text-anchor="middle" dominant-baseline="central" font-weight="700">40</text>
<text x="65" y="46" font-size="5" text-anchor="middle" font-weight="700">℃</text>
<text x="65" y="54" font-size="2.8" text-anchor="middle" fill="#6B7280">針で指す温度計</text>
<circle cx="65" cy="68" r="3" fill="none" stroke="#111" stroke-width=".3"/>
<path d="M60 68 h10 M65 63 v10" stroke="#111" stroke-width=".2"/>
<text x="65" y="75" font-size="2.6" text-anchor="middle" fill="#6B7280">ここに軸を通す (直径 6mm の穴)</text>
<text x="4" y="88" font-size="2.6" fill="#6B7280">100% (実寸) で印刷。左端 = 10℃ = 0 ステップ、右端 = 40℃ = 1024 ステップ</text>
</svg>
